<svg width="42" height="42" viewBox="0 0 42 42" fill="none" xmlns="http://www.w3.org/2000/svg">
<circle cx="21" cy="21" r="21" fill="white"/>
<path d="M28.4665 27.5329V28.1552C28.4665 29.1861 27.6307 30.0218 26.5998 30.0218H11.6665C10.6355 30.0218 9.7998 29.1861 9.7998 28.1552V18.1996C9.7998 17.1687 10.6355 16.3329 11.6665 16.3329H12.2887V24.4218C12.2887 26.1373 13.6843 27.5329 15.3998 27.5329H28.4665ZM32.1998 24.4218V14.4663C32.1998 13.4353 31.3641 12.5996 30.3331 12.5996H15.3998C14.3689 12.5996 13.5331 13.4353 13.5331 14.4663V24.4218C13.5331 25.4528 14.3689 26.2885 15.3998 26.2885H30.3331C31.3641 26.2885 32.1998 25.4528 32.1998 24.4218ZM19.7554 16.3329C19.7554 17.3639 18.9196 18.1996 17.8887 18.1996C16.8577 18.1996 16.022 17.3639 16.022 16.3329C16.022 15.302 16.8577 14.4663 17.8887 14.4663C18.9196 14.4663 19.7554 15.302 19.7554 16.3329ZM16.022 21.9329L18.1809 19.774C18.3632 19.5918 18.6587 19.5918 18.8409 19.774L20.3776 21.3107L25.6476 16.0407C25.8298 15.8585 26.1253 15.8585 26.3076 16.0407L29.7109 19.4441V23.7996H16.022V21.9329Z" fill="black"/>
</svg>
